<svg xmlns="http://www.w3.org/2000/svg" viewBox="0 0 77.03 52.09"><defs><style>.cls-1{fill:#00a64a;}.cls-2{fill:#294937;}.cls-3{fill:#88debd;opacity:0.5;}.cls-4{fill:#273d0e;}.cls-5{fill:#263512;}.cls-5,.cls-6{fill-rule:evenodd;}.cls-6,.cls-8,.cls-9{fill:#f1f8f7;}.cls-7{fill:#253b0e;}.cls-9{opacity:0.1;}.cls-10,.cls-14{fill:#fff;}.cls-10{stroke:#000;stroke-miterlimit:10;}.cls-11{fill:#6fb1d8;}.cls-12{fill:#ff1d25;}.cls-13{fill:#dca235;}.cls-15{fill:#182308;}</style></defs><title>Recurso 2</title><g id="Capa_2" data-name="Capa 2"><g id="Capa_1-2" data-name="Capa 1"><path class="cls-1" d="M70.45,15.44v9.09H52.73V12.29A5.33,5.33,0,0,0,47.4,7H14.61l.45-.63A14,14,0,0,1,26.45.5H55.51A14.93,14.93,0,0,1,70.45,15.44Z"/><path class="cls-2" d="M70.45,24.53V40.84H68.84a3.53,3.53,0,0,1-3.14-2l-.51-1a1.49,1.49,0,0,0-1.33-.86H55.25a1.5,1.5,0,0,0-1.35.92l-1.54,3.5a3.54,3.54,0,0,1-3.21,2.18H46.46V34.07a8,8,0,0,1,2.37-5.74l3.9-3.81Z"/><rect class="cls-3" x="39.05" y="5.76" width="1.52" height="15.39"/><path class="cls-4" d="M55.1,44.15H76.55a.48.48,0,0,0,.48-.48V41.85a.48.48,0,0,0-.48-.48H70.87l-3.15-3.48-8.08-.74Z"/><path class="cls-5" d="M38.54,30.8v3.12H28.21a.59.59,0,0,1-.55-.8A3.6,3.6,0,0,1,31,30.8Z"/><polygon class="cls-6" points="38.72 43.51 28.18 43.51 28.23 43.16 29.31 33.92 38.54 33.92 38.71 43.07 38.72 43.51"/><polygon class="cls-2" points="40.57 19.8 40.57 43.99 35.5 44.12 35.56 43.51 35.6 43.14 36.54 33.92 36.86 30.8 37.98 19.8 40.57 19.8"/><path d="M0,45.8a6.58,6.58,0,0,0,6.7,6.29,6.31,6.31,0,0,0,6.48-6.29,6.58,6.58,0,0,0-6.7-6.29A6.31,6.31,0,0,0,0,45.8Z"/><path class="cls-7" d="M2,45.8a4.64,4.64,0,0,0,4.72,4.43,4.45,4.45,0,0,0,4.57-4.43,4.64,4.64,0,0,0-4.72-4.43A4.45,4.45,0,0,0,2,45.8Z"/><path class="cls-8" d="M4.87,45.8a1.73,1.73,0,0,0,1.76,1.65,1.66,1.66,0,0,0,1.7-1.65,1.73,1.73,0,0,0-1.76-1.65A1.66,1.66,0,0,0,4.87,45.8Z"/><path class="cls-1" d="M9.94,34.82s-5,.11-7.21,2.1C-.29,39.69,0,42.61,0,42.61s12.08,2.08,15,1Z"/><path class="cls-9" d="M9.46,35.27a13.77,13.77,0,0,0-5.12,1.95,6.76,6.76,0,0,0-3,4.45c1.1.25,2.19.31,3.29.56-.09-.39.28-.75.47-1.11A12.83,12.83,0,0,1,7.17,38a6.13,6.13,0,0,1,3.18-1.85A1.65,1.65,0,0,0,9.46,35.27Z"/><path d="M57.7,45.8a6.58,6.58,0,0,0,6.7,6.29,6.31,6.31,0,0,0,6.48-6.29,6.58,6.58,0,0,0-6.7-6.29A6.31,6.31,0,0,0,57.7,45.8Z"/><path class="cls-7" d="M59.64,45.8a4.64,4.64,0,0,0,4.72,4.43,4.45,4.45,0,0,0,4.57-4.43,4.64,4.64,0,0,0-4.72-4.43A4.45,4.45,0,0,0,59.64,45.8Z"/><path class="cls-8" d="M62.56,45.8a1.73,1.73,0,0,0,1.76,1.65A1.66,1.66,0,0,0,66,45.8a1.73,1.73,0,0,0-1.76-1.65A1.66,1.66,0,0,0,62.56,45.8Z"/><path class="cls-10" d="M74.48,15.44v9.09H56.76V12.29A5.33,5.33,0,0,0,51.43,7H14.86l.45-.63A14,14,0,0,1,26.7.5H59.54A14.94,14.94,0,0,1,74.48,15.44Z"/><path class="cls-1" d="M74.48,24.53V42.61H72a3.55,3.55,0,0,1-3.14-1.9l-.51-1a1.5,1.5,0,0,0-1.32-.8H60.63a1.5,1.5,0,0,0-1.36.86l-1.54,3.26a3.55,3.55,0,0,1-3.21,2h-4V33.44a7.24,7.24,0,0,1,2.37-5.35l3.9-3.55Z"/><path class="cls-10" d="M74.48,24.53V39.76H72.87a3.55,3.55,0,0,1-3.14-1.9l-.51-1a1.5,1.5,0,0,0-1.33-.8H59.28a1.5,1.5,0,0,0-1.35.86l-1.54,3.26a3.55,3.55,0,0,1-3.21,2H50.49V33.44a7.24,7.24,0,0,1,2.37-5.35l3.9-3.55Z"/><path class="cls-10" d="M23.43,7s-4.9,5.56-4.9,17H6.6a27.31,27.31,0,0,1,.69-3.15l.16-.58c.25-.84.55-1.79.94-2.8L8.54,17l.15-.39.16-.39L9,15.91l.14-.32c.15-.32.3-.65.46-1l.18-.37L9.89,14l.17-.33c.46-.88,1-1.78,1.56-2.67l.25-.38.17-.24.22-.31.19-.26.2-.26L13,9.13l.3-.37.25-.3q.64-.77,1.35-1.5Z"/><path class="cls-10" d="M50.49,42.61V45.1H18.71a7.75,7.75,0,0,1-4.38-1.36,7.84,7.84,0,0,1-2-2,33.11,33.11,0,0,1-3.61-6.82c-.28-.72-.55-1.48-.78-2.27A30.44,30.44,0,0,1,7,28.5c-.15-1-.26-2-.31-3,0-.16,0-.33,0-.5,0-.36,0-.72,0-1.08H18.53s0,.4,0,1.08c0,.15,0,.32,0,.5-.07,4.31,0,16.06,3.52,17.11a29.9,29.9,0,0,0,6.22.54c2.23,0,4.8,0,7.38,0l3.11-.07L40.57,43c2.2-.07,4.24-.15,5.89-.22C48.9,42.7,50.49,42.61,50.49,42.61Z"/><path class="cls-2" d="M18.09,11.93,16,17.69a4.7,4.7,0,0,1-4.41,3.08H7.29l.16-.58a33.19,33.19,0,0,1,5.8-11.43l.25-.3h2.17A2.58,2.58,0,0,1,18.09,11.93Z"/><path class="cls-11" d="M17.5,12l-2.07,5.35A4.47,4.47,0,0,1,13,19.79a4.79,4.79,0,0,1-1.33.37h0a5,5,0,0,1-.61,0H7.45a33.19,33.19,0,0,1,5.8-11.43h1.87a2.62,2.62,0,0,1,1.29.33,2.46,2.46,0,0,1,.79.7,2.3,2.3,0,0,1,.3.56A2.24,2.24,0,0,1,17.5,12Z"/><path class="cls-3" d="M16.41,9.09,10.59,20.2H7.79l7-11.43h.34A2.62,2.62,0,0,1,16.41,9.09Z"/><path class="cls-3" d="M17.5,10.35,13,19.79a4.79,4.79,0,0,1-1.33.37L17.2,9.79A2.3,2.3,0,0,1,17.5,10.35Z"/><rect class="cls-12" x="72.07" y="27.68" width="2.4" height="7.13"/><rect class="cls-12" x="72.07" y="27.68" width="2.4" height="4.73"/><path class="cls-1" d="M69.52,28.58H56.68a.45.45,0,0,1-.45-.45h0a.45.45,0,0,1,.45-.45H69.52a.45.45,0,0,1,.45.45h0A.45.45,0,0,1,69.52,28.58Z"/><path class="cls-1" d="M69.52,31.7H54.43a.45.45,0,0,1-.45-.45h0a.45.45,0,0,1,.45-.45H69.52a.45.45,0,0,1,.45.45h0A.45.45,0,0,1,69.52,31.7Z"/><path class="cls-1" d="M69.52,34.82H52.17a.45.45,0,0,1-.45-.45h0a.45.45,0,0,1,.45-.45H69.52a.45.45,0,0,1,.45.45h0A.45.45,0,0,1,69.52,34.82Z"/><path class="cls-13" d="M6.41,28.43v4.73a2.37,2.37,0,0,0,0-4.73Z"/><path class="cls-14" d="M6,28.43h.36a0,0,0,0,1,0,0v4.73a0,0,0,0,1,0,0H6a.77.77,0,0,1-.77-.77V29.2A.77.77,0,0,1,6,28.43Z"/><path class="cls-1" d="M22.89,1.75A7.81,7.81,0,0,1,26.74,1H60.57c2,0,3.81.57,4.29,1.38h0Z"/><rect class="cls-15" x="75.53" y="41.37" width="0.38" height="2.76"/><polygon class="cls-2" points="13.55 34.1 14.16 34.1 14.16 37.85 13.7 37.85 13.55 34.1"/><polygon class="cls-2" points="14.71 34.1 15.32 34.1 15.32 37.85 14.87 37.85 14.71 34.1"/><polygon class="cls-2" points="15.86 34.1 16.48 34.1 16.48 37.85 15.98 37.85 15.86 34.1"/><path class="cls-2" d="M18.49,25c0,.15,0,.32,0,.5H6.64c0-.16,0-.33,0-.5Z"/></g></g></svg>